<?xml version="1.0" encoding="UTF-8" standalone="no"?>
<!-- Created with Inkscape (http://www.inkscape.org/) -->

<svg
   width="133.54013mm"
   height="34.565792mm"
   viewBox="0 0 133.54013 34.565792"
   version="1.1"
   id="svg1"
   xml:space="preserve"
   inkscape:version="1.4.3 (0d15f75042, 2025-12-25)"
   sodipodi:docname="logo-design.svg"
   xmlns:inkscape="http://www.inkscape.org/namespaces/inkscape"
   xmlns:sodipodi="http://sodipodi.sourceforge.net/DTD/sodipodi-0.dtd"
   xmlns:xlink="http://www.w3.org/1999/xlink"
   xmlns="http://www.w3.org/2000/svg"
   xmlns:svg="http://www.w3.org/2000/svg"><sodipodi:namedview
     id="namedview1"
     pagecolor="#ffffff"
     bordercolor="#000000"
     borderopacity="0.25"
     inkscape:showpageshadow="2"
     inkscape:pageopacity="0.0"
     inkscape:pagecheckerboard="0"
     inkscape:deskcolor="#d1d1d1"
     inkscape:document-units="mm"
     inkscape:zoom="1.2454125"
     inkscape:cx="397.05721"
     inkscape:cy="561.25984"
     inkscape:window-width="2836"
     inkscape:window-height="1542"
     inkscape:window-x="0"
     inkscape:window-y="0"
     inkscape:window-maximized="1"
     inkscape:current-layer="layer1"><inkscape:page
       x="1.0433151e-20"
       y="0"
       width="133.54015"
       height="34.565792"
       id="page2"
       margin="0"
       bleed="0" /></sodipodi:namedview><defs
     id="defs1"><linearGradient
       id="linearGradient12"
       inkscape:collect="always"><stop
         style="stop-color:#ff0000;stop-opacity:1;"
         offset="0"
         id="stop12" /><stop
         style="stop-color:#ffb700;stop-opacity:1;"
         offset="0.16911572"
         id="stop14" /><stop
         style="stop-color:#13ff00;stop-opacity:1;"
         offset="0.35476542"
         id="stop15" /><stop
         style="stop-color:#00fffd;stop-opacity:1;"
         offset="0.48858964"
         id="stop16" /><stop
         style="stop-color:#1800ff;stop-opacity:1;"
         offset="0.67316264"
         id="stop17" /><stop
         style="stop-color:#ff00ce;stop-opacity:1;"
         offset="0.83455247"
         id="stop18" /><stop
         style="stop-color:#ff0000;stop-opacity:1;"
         offset="1"
         id="stop13" /></linearGradient><linearGradient
       inkscape:collect="always"
       xlink:href="#linearGradient12"
       id="linearGradient13"
       x1="4.6100001"
       y1="295.10999"
       x2="1020.51"
       y2="295.10999"
       gradientUnits="userSpaceOnUse" /><linearGradient
       inkscape:collect="always"
       xlink:href="#linearGradient12"
       id="linearGradient2"
       gradientUnits="userSpaceOnUse"
       x1="4.6100001"
       y1="295.10999"
       x2="1020.51"
       y2="295.10999" /><linearGradient
       inkscape:collect="always"
       xlink:href="#linearGradient12"
       id="linearGradient3"
       gradientUnits="userSpaceOnUse"
       x1="4.6100001"
       y1="295.10999"
       x2="1020.51"
       y2="295.10999" /><linearGradient
       inkscape:collect="always"
       xlink:href="#linearGradient12"
       id="linearGradient4"
       gradientUnits="userSpaceOnUse"
       x1="4.6100001"
       y1="295.10999"
       x2="1020.51"
       y2="295.10999" /></defs><g
     inkscape:label="Layer 1"
     inkscape:groupmode="layer"
     id="layer1"
     transform="translate(-32.151866,-91.314667)"><g
       id="g9"
       transform="matrix(2.2939856,0,0,2.2939856,-155.18426,-85.390746)"
       inkscape:export-filename="../../technative-logo.png"
       inkscape:export-xdpi="142.64999"
       inkscape:export-ydpi="142.64999"><path
         id="path4"
         data-name="Path 10"
         d="m 118.01574,81.705421 v 0.82286 l -0.7292,0.14023 v 5.84173 h -1.35995 l -2.74823,-4.58179 -0.0265,0.005 v 3.61712 l 0.72919,0.14023 v 0.81756 h -2.8194 v -0.81624 l 0.72443,-0.14023 v -4.88315 l -0.72443,-0.14023 v -0.82259 h 2.09021 l 2.7477,4.57994 0.0283,-0.004 v -3.61262 l -0.72893,-0.14023 v -0.82259 z"
         fill="#112f41"
         style="stroke-width:0.264583" /><path
         id="path5"
         data-name="Path 11"
         d="m 121.70774,88.509971 a 2.5767771,2.5767771 0 0 1 -0.0982,-0.25929 2.0039541,2.0039541 0 0 1 -0.0654,-0.26908 1.8817166,1.8817166 0 0 1 -0.59108,0.45376 1.7750896,1.7750896 0 0 1 -0.79719,0.1733 1.6695208,1.6695208 0 0 1 -1.17977,-0.40401 1.4263687,1.4263687 0 0 1 -0.43709,-1.10147 1.2480396,1.2480396 0 0 1 0.57044,-1.09669 2.9932312,2.9932312 0 0 1 1.67402,-0.38788 h 0.69506 v -0.4953 a 0.74665416,0.74665416 0 0 0 -0.21008,-0.56568 0.86651041,0.86651041 0 0 0 -0.62124,-0.20214 1.4716125,1.4716125 0 0 0 -0.41566,0.0529 1.0675937,1.0675937 0 0 0 -0.29449,0.12886 l -0.0894,0.54504 h -1.02791 l 0.004,-1.12157 a 3.8234937,3.8234937 0 0 1 0.85778,-0.42545 3.1027687,3.1027687 0 0 1 1.05357,-0.1733 2.3947437,2.3947437 0 0 1 1.52611,0.46169 1.571625,1.571625 0 0 1 0.58658,1.31101 v 2.30188 a 1.6229541,1.6229541 0 0 0 0.0161,0.19632 l 0.41619,0.0577 v 0.81809 z m -1.18216,-0.91096 a 1.1797771,1.1797771 0 0 0 0.56039,-0.13229 1.0771187,1.0771187 0 0 0 0.39264,-0.33417 v -0.77126 h -0.69612 a 0.94985415,0.94985415 0 0 0 -0.65855,0.2032 0.63499999,0.63499999 0 0 0 -0.22463,0.48842 0.50561874,0.50561874 0 0 0 0.16563,0.40402 0.68341874,0.68341874 0 0 0 0.46064,0.14235 z"
         fill="#112f41"
         style="stroke-width:0.264583" /><path
         id="path6"
         data-name="Path 12"
         d="m 125.38597,82.214751 v 1.23878 h 0.88794 v 0.95832 h -0.88794 v 2.57624 a 0.59478333,0.59478333 0 0 0 0.12118,0.42016 0.43232916,0.43232916 0 0 0 0.32729,0.12647 2.3225125,2.3225125 0 0 0 0.24527,-0.0116 2.2396979,2.2396979 0 0 0 0.23601,-0.04 l 0.11535,0.98584 a 3.310202,3.310202 0 0 1 -0.45323,0.10583 3.1937854,3.1937854 0 0 1 -0.48604,0.0347 1.4552083,1.4552083 0 0 1 -1.0869,-0.38788 1.698625,1.698625 0 0 1 -0.38048,-1.22899 v -2.58101 h -0.74189 v -0.95832 h 0.74348 v -1.23851 z"
         fill="#112f41"
         style="stroke-width:0.264583" /><rect
         id="rect6"
         data-name="Rectangle 2"
         width="1.3647208"
         height="1.0234083"
         fill="#112f41"
         x="127.55899"
         y="81.219383"
         style="stroke-width:0.264583" /><path
         id="path7"
         data-name="Path 13"
         d="m 128.92398,87.551921 v -4.09839 h -2.09418 v 0.82258 l 0.72919,0.14023 v 3.13558 l -0.65855,0.14023 v 0.81809 h 2.67785 v -0.81809 z"
         fill="#112f41"
         style="stroke-width:0.264583" /><path
         id="path8"
         data-name="Path 14"
         d="m 132.17147,84.275061 -0.47625,0.0889 0.67019,2.26271 0.0884,0.47625 h 0.0283 l 0.0982,-0.47625 0.65855,-2.25716 -0.48604,-0.0934 v -0.82258 h 2.29526 v 0.8202 l -0.43921,0.0699 -1.49278,4.16534 h -1.30492 l -1.49569,-4.16428 -0.43921,-0.0699 v -0.82126 h 2.29447 z"
         fill="#112f41"
         style="stroke-width:0.264583" /><path
         id="path9"
         data-name="Path 15"
         d="m 137.8407,88.608411 a 2.2777979,2.2777979 0 0 1 -1.74783,-0.70089 2.5034875,2.5034875 0 0 1 -0.65405,-1.78091 v -0.18679 a 2.7667479,2.7667479 0 0 1 0.61939,-1.85526 2.3084896,2.3084896 0 0 1 3.2504,-0.10742 2.3714604,2.3714604 0 0 1 0.56515,1.6682 v 0.74348 h -3.01889 l -0.009,0.0265 a 1.3170958,1.3170958 0 0 0 0.33416,0.82259 1.0451042,1.0451042 0 0 0 0.80804,0.3228 2.6326041,2.6326041 0 0 0 0.75036,-0.0913 3.4395833,3.4395833 0 0 0 0.65405,-0.28866 l 0.37042,0.84111 a 2.6722916,2.6722916 0 0 1 -0.81095,0.41619 3.4578395,3.4578395 0 0 1 -1.11099,0.1704 z m -0.12118,-4.19656 a 0.71067082,0.71067082 0 0 0 -0.59875,0.28866 1.5046854,1.5046854 0 0 0 -0.27067,0.762 l 0.0138,0.023 h 1.67402 v -0.12118 a 1.0927292,1.0927292 0 0 0 -0.2032,-0.69268 0.73395416,0.73395416 0 0 0 -0.61516,-0.25982 z"
         fill="#112f41"
         style="stroke-width:0.264583" /></g><g
       id="g12"
       transform="matrix(0.06352137,0,0,0.06352137,31.859035,89.851768)"
       style="fill:url(#linearGradient13);fill-opacity:1"><path
         d="M 364.09,23.89 H 14.82 L 4.61,157.66 H 15.48 C 23.3,57.47 31.89,39.93 125.69,39.93 c 10.87,0 28.53,0 33.39,0 11.55,1.81 11.55,9.16 11.55,23.08 v 329.26 c 0,21.86 -1.83,28.53 -52.78,28.53 h -17.17 v 14.61 c 29.02,-0.56 59.26,-1.15 88.93,-1.15 29.58,0 59.91,0.59 88.91,1.15 V 420.8 h -16.88 c -50.19,0 -52,-6.67 -52,-28.53 V 63.02 c 0,-13.36 0,-20.61 10.89,-23.08 h 33.19 c 92.55,0 101.61,17.44 109.42,117.73 h 10.89"
         id="path10"
         style="fill:url(#linearGradient2);fill-opacity:1" /><path
         d="m 667.6,414.32 h -10.87 c -13.26,89.69 -21.08,138.44 -127.47,138.44 h -83.95 c -24.16,0 -25.3,-3.05 -25.3,-23.86 V 359.83 h 57.06 c 57.06,0 62.5,20.91 62.5,71.96 h 9.72 V 274.44 h -9.72 c 0,50.19 -5.45,70.71 -62.5,70.71 H 420 v -149.9 c 0,-20.42 1.15,-23.47 25.3,-23.47 H 528 c 93.6,0 104.49,37.2 112.97,117.17 h 10.9 L 637.36,155.17 H 331.1 v 16.61 c 42.84,0 49.7,0 49.7,27.19 v 326.42 c 0,27.19 -6.77,27.19 -49.7,27.19 v 14.61 h 314.76"
         id="path11"
         style="fill:url(#linearGradient3);fill-opacity:1" /><path
         d="M 830.66,206.51 920.15,77.13 c 8.96,-12.7 27.19,-38.84 76.82,-39.5 v -14.6 c -13.85,1.15 -36.83,1.15 -51.34,1.15 -19.93,0 -44.75,0 -59.82,-1.15 v 14.61 c 19.37,1.81 24.13,13.92 24.13,23.67 0,7.23 -2.96,12.11 -7.25,18.12 L 822.84,195.25 733.35,64.26 c -4.2,-6.59 -4.79,-8.5 -4.79,-10.31 0,-5.45 6.59,-15.75 26.62,-16.32 v -14.6 c -19.37,1.15 -48.95,1.15 -68.88,1.15 -15.66,0 -45.89,0 -60.5,-1.15 v 14.61 c 33.22,0 44.09,1.25 57.45,20.03 L 799.93,229.04 694.71,382.75 C 668.75,420.34 629.45,421 617.89,421 v 14.61 c 13.82,-1.15 36.83,-1.15 51.34,-1.15 16.32,0 44.75,0 59.82,1.15 V 421 c -18.71,-1.81 -24.13,-13.92 -24.13,-23.67 0,-7.82 2.96,-12.11 6.01,-16.41 l 96.75,-141.2 105.22,154.66 c 4.76,6.69 4.76,8.5 4.76,10.31 0,4.76 -5.42,15.17 -26.6,16.41 v 14.61 c 19.37,-1.15 48.95,-1.15 68.88,-1.15 15.66,0 45.89,0 60.57,1.15 V 421.1 c -38.74,0 -44.84,-2.96 -56.86,-20.03"
         id="path12"
         style="fill:url(#linearGradient4);fill-opacity:1" /></g></g></svg>
